<svg height="74" width="101" xmlns="http://www.w3.org/2000/svg"><g fill="none" fill-rule="evenodd" transform="translate(.5)"><path d="m56.6014 39.8036c.1793.0943 12.7189-10.8793 16.0613-10.885.2944.0039.5765.0472.85.1152 1.534.382 2.7302 1.733 2.6755 3.4104-.0557 1.6764-4.683 17.2933-5.3575 21.0009-.1812 1.0028-.2321 2.2236.7094 2.9264.7283.5443 1.9811.3604 3.2774-.5057 4.1698-2.784 22.7962-19.0226 23.5066-19.5094 1.7735 1.9745 1.449 4.7255-.035 6.6293-7.3028 9.332-21.9754 22.7613-27.2424 24.7386-3.2717 1.2283-3.9594-2.6179-6.201-6.9603-2.4735-4.7915 1.4151-19.568 1.768-21.6293z" fill="#c8c9c7"/><path d="m69.5525 59.6789c-1.2971.866-2.548 1.05-3.2773.5056-.9406-.7019-.8915-1.9236-.7085-2.9273.6736-3.7057 5.301-19.3236 5.3557-21 .0556-1.6774-1.1406-3.0283-2.6746-3.4104-.2736-.068-.5547-.1113-.85-.1151-3.3424.0057-14.9894 11.017-15.1686 10.9226.729-1.5851 3.344-7.9 4.8818-11.6641 1.5378-3.7642 2.833-6.7293 1.3614-8.3481-3.6265-3.9887-9.3302 2.416-10.6585 3.4783-1.95 1.5604-26.9925 24.533-28.9397 26.0226-.1542-.186 35.8243-49.5852 36.652-50.418-2.185-3.8037-8.2133-1.3008-14.5104 5.45-13.1728 14.1228-34.816 43.5596-40.5934 58.9219-.1.267-.4217 1.5604-.4217 2.068 0 2.1877 1.5792 3.9046 3.7066 4.3094.367.0698.9254.099 1.051.0896 1.5225-.1142 3.216-1.0812 4.9942-2.8595l33.6863-32.7378c-.2132.5189-5.4416 13.5851-5.1485 16.2577.3783 3.4537 3.7528 4.0726 6.6415 2.0896 1.5424-1.0595 13.3122-11.3619 17.0396-14.461-.3529 2.0614-5.37 17.826-2.3896 22.7242 2.9804 4.898 8.1934 4.3755 11.4641 3.1472 5.267-1.9774 14.6755-11.5934 21.9793-20.9255 1.483-1.9038 2.1726-4.3217.399-6.2962-.7103.4867-19.7018 16.3924-23.8717 19.1764z" fill="#030404"/><circle cx="75.0461" cy="22.5461" fill="#c8c9c7" r="4.0461"/></g></svg>